<svg xmlns="http://www.w3.org/2000/svg" viewBox="0 0 500 920"><defs><style>.cls-1{fill:#4641f9;}</style></defs><title>Artboard 12</title><g id="Layer_2" data-name="Layer 2"><path class="cls-1" d="M268,496.85a17.53,17.53,0,0,0-4.43.58,18,18,0,1,0-25.88.26,17.91,17.91,0,0,0-5.31-.8,18.12,18.12,0,1,0,14.42,29l-2.44,16.66h12.24l-2.56-17.22a17.68,17.68,0,1,0,14-28.52Z"/><path class="cls-1" d="M232,423.15a17.53,17.53,0,0,0,4.43-.58,18,18,0,1,0,25.88-.26,17.91,17.91,0,0,0,5.31.8,18.12,18.12,0,1,0-14.42-29l2.44-16.66H243.38l2.56,17.22a17.68,17.68,0,1,0-14,28.52Z"/></g></svg>