<svg xmlns="http://www.w3.org/2000/svg" viewBox="0 0 500 920"><defs><style>.cls-1{fill:#4641f9;}</style></defs><title>Artboard 15</title><g id="Layer_2" data-name="Layer 2"><path class="cls-1" d="M268,541.7a17.53,17.53,0,0,0-4.43.59,18,18,0,1,0-25.88.25,18.12,18.12,0,1,0,9.11,28.24l-2.44,16.67h12.24l-2.56-17.23a17.68,17.68,0,1,0,14-28.52Z"/><path class="cls-1" d="M268,452a17.53,17.53,0,0,0-4.43.58,18,18,0,1,0-25.88.26,17.91,17.91,0,0,0-5.31-.8,18.11,18.11,0,1,0,14.42,29l-2.44,16.66h12.24l-2.56-17.23A17.68,17.68,0,1,0,268,452Z"/><path class="cls-1" d="M320.48,468a17.41,17.41,0,0,0,4.43-.58,18,18,0,1,0,25.88-.26,17.91,17.91,0,0,0,5.31.8,18.11,18.11,0,1,0-14.42-29l2.44-16.66H331.89l2.56,17.23a17.68,17.68,0,1,0-14,28.51Z"/><path class="cls-1" d="M143.47,468a17.55,17.55,0,0,0,4.44-.58,18,18,0,1,0,25.87-.26,18.11,18.11,0,1,0-9.1-28.24l2.43-16.66H154.88l2.56,17.23a17.68,17.68,0,1,0-14,28.51Z"/><path class="cls-1" d="M268,362.29a17.53,17.53,0,0,0-4.43.58,18,18,0,1,0-25.88.26,17.91,17.91,0,0,0-5.31-.8,18.11,18.11,0,1,0,14.42,29L244.38,408h12.24l-2.56-17.22a17.68,17.68,0,1,0,14-28.52Z"/></g></svg>