<svg xmlns="http://www.w3.org/2000/svg" viewBox="0 0 500 920"><defs><style>.cls-1{fill:#4641f9;}</style></defs><title>Artboard 19</title><g id="Layer_2" data-name="Layer 2"><path class="cls-1" d="M312.27,365.36a17.53,17.53,0,0,0-4.43.59,18,18,0,1,0-25.87.25,18.36,18.36,0,0,0-5.32-.79,18.11,18.11,0,1,0,14.42,29l-2.43,16.67h12.23l-2.56-17.23a17.68,17.68,0,1,0,14-28.52Z"/><path class="cls-1" d="M268,278.73a18,18,0,0,0-4.43.58,18,18,0,1,0-25.88.26,18.12,18.12,0,1,0,9.11,28.24l-2.44,16.67h12.24l-2.56-17.23a17.68,17.68,0,1,0,14-28.52Z"/><path class="cls-1" d="M223.77,365.36a17.53,17.53,0,0,0-4.43.59,18,18,0,1,0-25.88.25,18.12,18.12,0,1,0,9.11,28.24l-2.44,16.67h12.23l-2.55-17.23a17.68,17.68,0,1,0,14-28.52Z"/><path class="cls-1" d="M187.73,554.64a17.53,17.53,0,0,0,4.43-.59A18,18,0,1,0,218,553.8a18.36,18.36,0,0,0,5.32.79,18.11,18.11,0,1,0-14.42-29l2.43-16.67H199.13l2.56,17.23a17.68,17.68,0,1,0-14,28.52Z"/><path class="cls-1" d="M232,641.27a18,18,0,0,0,4.43-.58,18,18,0,1,0,25.88-.26,18.12,18.12,0,1,0-9.11-28.24l2.44-16.67H243.38l2.56,17.23a17.68,17.68,0,1,0-14,28.52Z"/><path class="cls-1" d="M276.23,554.64a17.53,17.53,0,0,0,4.43-.59,18,18,0,1,0,25.88-.25,18.12,18.12,0,1,0-9.11-28.24l2.44-16.67H287.64l2.55,17.23a17.68,17.68,0,1,0-14,28.52Z"/><path class="cls-1" d="M232,468a17.53,17.53,0,0,0,4.43-.58,18,18,0,1,0,25.88-.26,17.91,17.91,0,0,0,5.31.8,18.11,18.11,0,1,0-14.42-29l2.44-16.66H243.38l2.56,17.23A17.68,17.68,0,1,0,232,468Z"/><path class="cls-1" d="M179.52,452a17.41,17.41,0,0,0-4.43.58,18,18,0,1,0-25.88.26,17.91,17.91,0,0,0-5.31-.8,18.11,18.11,0,1,0,14.42,29l-2.44,16.66h12.23l-2.56-17.23a17.68,17.68,0,1,0,14-28.51Z"/><path class="cls-1" d="M356.53,452a17.55,17.55,0,0,0-4.44.58,18,18,0,1,0-25.87.26,18.11,18.11,0,1,0,9.1,28.24l-2.43,16.66h12.23l-2.56-17.23a17.68,17.68,0,1,0,14-28.51Z"/></g></svg>