<svg id="Layer_1" data-name="Layer 1" xmlns="http://www.w3.org/2000/svg" viewBox="0 0 500 920"><defs><style>.cls-1{fill:#4641f9;}</style></defs><title>Artboard 2</title><path class="cls-1" d="M279.75,511.38l.07-.05-.55-.73a14.2,14.2,0,0,0-1.2-1.6l-28-37.57-28,37.46a15.45,15.45,0,0,0-1.34,1.79l0,0h0a16.09,16.09,0,0,0,13.43,24.77,15.86,15.86,0,0,0,12.25-5.8l-2.59,17.72H256l-2.7-18.22a15.93,15.93,0,0,0,28.62-9.77A16.06,16.06,0,0,0,279.75,511.38Z"/><path class="cls-1" d="M220.25,408.62l-.07.05.55.73a14.2,14.2,0,0,0,1.2,1.6l28,37.57,28-37.46a15.45,15.45,0,0,0,1.34-1.79l0,0h0a16.09,16.09,0,0,0-13.43-24.77,15.86,15.86,0,0,0-12.25,5.8l2.59-17.72H244l2.7,18.22a15.93,15.93,0,0,0-28.62,9.77A16.06,16.06,0,0,0,220.25,408.62Z"/></svg>