<svg id="Layer_1" data-name="Layer 1" xmlns="http://www.w3.org/2000/svg" viewBox="0 0 500 920"><defs><style>.cls-1{fill:#4641f9;}</style></defs><title>Artboard 6</title><path class="cls-1" d="M279.75,319.39l.07-.05-.55-.73a14.2,14.2,0,0,0-1.2-1.6l-28-37.57L222,316.9a15.45,15.45,0,0,0-1.34,1.79l0,0h0a16.09,16.09,0,0,0,13.43,24.77,15.86,15.86,0,0,0,12.25-5.8l-2.59,17.72H256l-2.7-18.22a15.93,15.93,0,0,0,28.62-9.77A16.06,16.06,0,0,0,279.75,319.39Z"/><path class="cls-1" d="M279.75,606.11l.07-.05-.55-.73a14.31,14.31,0,0,0-1.2-1.61l-28-37.57-28,37.47a14.64,14.64,0,0,0-1.34,1.79l0,0h0a16.09,16.09,0,0,0,13.43,24.76,15.88,15.88,0,0,0,12.25-5.79l-2.59,17.72H256l-2.7-18.22a16,16,0,0,0,26.48-17.81Z"/><path class="cls-1" d="M279.75,511.38l.07-.05-.55-.73a14.2,14.2,0,0,0-1.2-1.6l-28-37.57-28,37.46a15.45,15.45,0,0,0-1.34,1.79l0,0h0a16.09,16.09,0,0,0,13.43,24.77,15.86,15.86,0,0,0,12.25-5.8l-2.59,17.72H256l-2.7-18.22a15.93,15.93,0,0,0,28.62-9.77A16.06,16.06,0,0,0,279.75,511.38Z"/><path class="cls-1" d="M220.25,408.62l-.07.05.55.73a14.2,14.2,0,0,0,1.2,1.6l28,37.57,28-37.46a15.45,15.45,0,0,0,1.34-1.79l0,0h0a16.09,16.09,0,0,0-13.43-24.77,15.86,15.86,0,0,0-12.25,5.8l2.59-17.72H244l2.7,18.22a15.93,15.93,0,0,0-28.62,9.77A16.06,16.06,0,0,0,220.25,408.62Z"/><path class="cls-1" d="M198.62,489.75l0,.07.73-.55a14.2,14.2,0,0,0,1.6-1.2l37.57-28-37.46-28a15.45,15.45,0,0,0-1.79-1.34l0,0h0a16.09,16.09,0,0,0-24.77,13.43,15.86,15.86,0,0,0,5.8,12.25l-17.72-2.59V466l18.22-2.7a15.93,15.93,0,0,0,9.77,28.62A16.06,16.06,0,0,0,198.62,489.75Z"/><path class="cls-1" d="M301.38,430.25l-.05-.07-.73.55a14.2,14.2,0,0,0-1.6,1.2l-37.57,28,37.46,28a15.45,15.45,0,0,0,1.79,1.34l0,0h0a16.09,16.09,0,0,0,24.77-13.43,15.86,15.86,0,0,0-5.8-12.25l17.72,2.59V454l-18.22,2.7a15.93,15.93,0,0,0-9.77-28.62A16.06,16.06,0,0,0,301.38,430.25Z"/></svg>