<svg id="Layer_1" data-name="Layer 1" xmlns="http://www.w3.org/2000/svg" viewBox="0 0 500 920"><defs><style>.cls-1{fill:#4641f9;}</style></defs><title>Artboard 8</title><path class="cls-1" d="M279.75,511.38l.07-.05-.55-.73a14.2,14.2,0,0,0-1.2-1.6l-28-37.57-28,37.46a15.45,15.45,0,0,0-1.34,1.79l0,0h0a16.09,16.09,0,0,0,13.43,24.77,15.86,15.86,0,0,0,12.25-5.8l-2.59,17.72H256l-2.7-18.22a15.93,15.93,0,0,0,28.62-9.77A16.06,16.06,0,0,0,279.75,511.38Z"/><path class="cls-1" d="M220.25,408.62l-.07.05.55.73a14.2,14.2,0,0,0,1.2,1.6l28,37.57,28-37.46a15.45,15.45,0,0,0,1.34-1.79l0,0h0a16.09,16.09,0,0,0-13.43-24.77,15.86,15.86,0,0,0-12.25,5.8l2.59-17.72H244l2.7,18.22a15.93,15.93,0,0,0-28.62,9.77A16.06,16.06,0,0,0,220.25,408.62Z"/><path class="cls-1" d="M198.62,489.75l0,.07.73-.55a14.2,14.2,0,0,0,1.6-1.2l37.57-28-37.46-28a15.45,15.45,0,0,0-1.79-1.34l0,0h0a16.09,16.09,0,0,0-24.77,13.43,15.86,15.86,0,0,0,5.8,12.25l-17.72-2.59V466l18.22-2.7a15.93,15.93,0,0,0,9.77,28.62A16.06,16.06,0,0,0,198.62,489.75Z"/><path class="cls-1" d="M301.38,430.25l-.05-.07-.73.55a14.2,14.2,0,0,0-1.6,1.2l-37.57,28,37.46,28a15.45,15.45,0,0,0,1.79,1.34l0,0h0a16.09,16.09,0,0,0,24.77-13.43,15.86,15.86,0,0,0-5.8-12.25l17.72,2.59V454l-18.22,2.7a15.93,15.93,0,0,0-9.77-28.62A16.06,16.06,0,0,0,301.38,430.25Z"/><path class="cls-1" d="M239.09,603.23l.07,0-.54-.73a17.25,17.25,0,0,0-1.2-1.61l-28-37.57-28,37.47a18,18,0,0,0-1.34,1.78l0,0h0a16,16,0,0,0,25.68,19l-2.59,17.71h12.23L212.61,621a15.94,15.94,0,0,0,28.63-9.77A16.1,16.1,0,0,0,239.09,603.23Z"/><path class="cls-1" d="M320.4,603.23l.07,0-.54-.73a17.25,17.25,0,0,0-1.2-1.61l-28-37.57-28,37.47a16.57,16.57,0,0,0-1.34,1.78l0,0h0a16,16,0,0,0,25.67,19l-2.59,17.71h12.24L293.92,621a15.93,15.93,0,0,0,28.62-9.77A16.09,16.09,0,0,0,320.4,603.23Z"/><path class="cls-1" d="M239.09,324l.07-.05-.54-.73a17.25,17.25,0,0,0-1.2-1.61l-28-37.57-28,37.47a17,17,0,0,0-1.34,1.79l0,0h0a16,16,0,0,0,25.68,19L203.09,360h12.23l-2.71-18.22A16,16,0,0,0,239.09,324Z"/><path class="cls-1" d="M320.4,324l.07-.05-.54-.73a17.25,17.25,0,0,0-1.2-1.61L290.7,284l-28,37.47a15.74,15.74,0,0,0-1.34,1.79l0,0h0a16.07,16.07,0,0,0,13.42,24.76A15.86,15.86,0,0,0,287,342.29L284.39,360h12.24l-2.71-18.22A16,16,0,0,0,320.4,324Z"/></svg>