<svg id="Layer_1" data-name="Layer 1" xmlns="http://www.w3.org/2000/svg" viewBox="0 0 500 920"><defs><style>.cls-1{fill:#4641f9;}</style></defs><title>Artboard 9</title><path class="cls-1" d="M220.25,446.61l-.07.05.55.73a14.2,14.2,0,0,0,1.2,1.6l28,37.58,28-37.47a14.64,14.64,0,0,0,1.34-1.79l0,0h0a16.09,16.09,0,0,0-13.43-24.77,15.86,15.86,0,0,0-12.25,5.8l2.59-17.72H244l2.7,18.22a15.93,15.93,0,0,0-28.62,9.77A16.06,16.06,0,0,0,220.25,446.61Z"/><path class="cls-1" d="M201.74,450.53l.07,0-.54-.73a17.25,17.25,0,0,0-1.2-1.61l-28-37.57-28,37.47a17,17,0,0,0-1.34,1.79l0,0h0a16.09,16.09,0,0,0,13.42,24.76,15.86,15.86,0,0,0,12.25-5.79l-2.58,17.72H178l-2.71-18.22a15.94,15.94,0,0,0,28.62-9.78A16.09,16.09,0,0,0,201.74,450.53Z"/><path class="cls-1" d="M357.75,450.53l.07,0-.54-.73a17.25,17.25,0,0,0-1.2-1.61l-28-37.57-28,37.47a17,17,0,0,0-1.34,1.79l0,0h0a16.09,16.09,0,0,0,13.42,24.76,15.86,15.86,0,0,0,12.25-5.79l-2.58,17.72H334l-2.71-18.22a15.94,15.94,0,0,0,28.62-9.78A16.09,16.09,0,0,0,357.75,450.53Z"/><path class="cls-1" d="M279.75,273.4l.07,0-.55-.72a13.46,13.46,0,0,0-1.2-1.61l-28-37.57-28,37.47a15.34,15.34,0,0,0-1.34,1.78l0,0h0a16.09,16.09,0,0,0,13.43,24.77,15.88,15.88,0,0,0,12.25-5.79l-2.59,17.71H256l-2.7-18.22a15.85,15.85,0,0,0,12.65,6.3,16.09,16.09,0,0,0,13.83-24.11Z"/><path class="cls-1" d="M240.74,362l.07-.05-.54-.73a17.11,17.11,0,0,0-1.2-1.6L211,322l-28,37.47a16.6,16.6,0,0,0-1.33,1.79l0,0h0a16.09,16.09,0,0,0,13.42,24.77,15.88,15.88,0,0,0,12.26-5.8L204.74,398H217l-2.71-18.22A16,16,0,0,0,240.74,362Z"/><path class="cls-1" d="M318.75,362l.07-.05-.55-.73a15.43,15.43,0,0,0-1.19-1.6l-28-37.58-28,37.47a16.68,16.68,0,0,0-1.34,1.79l0,0h0a16.08,16.08,0,0,0,13.42,24.77,15.86,15.86,0,0,0,12.25-5.8L282.74,398H295l-2.7-18.22A15.93,15.93,0,0,0,320.89,370,16.06,16.06,0,0,0,318.75,362Z"/><path class="cls-1" d="M220.25,623.75l-.07,0,.55.73a14.31,14.31,0,0,0,1.2,1.61l28,37.57,28-37.47a14.64,14.64,0,0,0,1.34-1.79l0,0h0a16.09,16.09,0,0,0-13.43-24.76,15.88,15.88,0,0,0-12.25,5.79l2.59-17.71H244l2.7,18.22a15.85,15.85,0,0,0-12.65-6.3,16.09,16.09,0,0,0-13.83,24.11Z"/><path class="cls-1" d="M259.26,535.18l-.07.05.54.73a17.11,17.11,0,0,0,1.2,1.6l28,37.57,28-37.46a16.6,16.6,0,0,0,1.33-1.79l0,0h0a16.09,16.09,0,0,0-13.42-24.77,15.88,15.88,0,0,0-12.26,5.8l2.59-17.72H283l2.71,18.22a15.94,15.94,0,0,0-28.63,9.77A16.07,16.07,0,0,0,259.26,535.18Z"/><path class="cls-1" d="M181.25,535.18l-.07.05.55.73a15.43,15.43,0,0,0,1.19,1.6l28,37.57,28-37.46a16.68,16.68,0,0,0,1.34-1.79l0,0h0a16.08,16.08,0,0,0-13.42-24.77,15.86,15.86,0,0,0-12.25,5.8l2.59-17.72H205l2.7,18.22a15.93,15.93,0,0,0-28.62,9.77A16.06,16.06,0,0,0,181.25,535.18Z"/></svg>