<svg xmlns="http://www.w3.org/2000/svg" viewBox="0 0 500 920"><defs><style>.cls-1{fill:#ffe057;}</style></defs><title>Artboard 40</title><g id="Layer_4" data-name="Layer 4"><polygon class="cls-1" points="252.98 548.38 221.67 507.04 252.98 467 285.1 507.69 252.98 548.38"/><polygon class="cls-1" points="252.98 453 221.67 411.67 252.98 371.63 285.1 412.31 252.98 453"/><polygon class="cls-1" points="167.24 465.25 205.95 437 243.45 465.25 205.34 494.22 167.24 465.25"/><polygon class="cls-1" points="256.55 465.25 295.26 437 332.76 465.25 294.66 494.22 256.55 465.25"/><polygon class="cls-1" points="249.63 264.93 221.39 226.22 249.63 188.72 278.61 226.83 249.63 264.93"/><polygon class="cls-1" points="284.2 354.24 255.96 315.53 284.2 278.03 313.18 316.14 284.2 354.24"/><polygon class="cls-1" points="215.8 278.03 244.04 316.75 215.8 354.24 186.82 316.14 215.8 278.03"/><polygon class="cls-1" points="250.37 655.07 278.61 693.78 250.37 731.28 221.39 693.17 250.37 655.07"/><polygon class="cls-1" points="215.8 565.76 244.04 604.47 215.8 641.97 186.82 603.86 215.8 565.76"/><polygon class="cls-1" points="284.2 641.97 255.96 603.25 284.2 565.76 313.18 603.86 284.2 641.97"/></g></svg>