<svg xmlns="http://www.w3.org/2000/svg" viewBox="0 0 500 920"><defs><style>.cls-1{fill:#ffe057;}</style></defs><title>Artboard 36</title><g id="Layer_4" data-name="Layer 4"><polygon class="cls-1" points="249.63 542.76 221.39 504.05 249.63 466.55 278.61 504.66 249.63 542.76"/><polygon class="cls-1" points="249.63 453.45 221.39 414.74 249.63 377.24 278.61 415.34 249.63 453.45"/><polygon class="cls-1" points="167.24 459.63 205.95 431.39 243.45 459.63 205.34 488.61 167.24 459.63"/><polygon class="cls-1" points="256.55 459.63 295.26 431.39 332.76 459.63 294.66 488.61 256.55 459.63"/><polygon class="cls-1" points="211.9 337.04 250.61 308.79 288.11 337.04 250 366.01 211.9 337.04"/><polygon class="cls-1" points="211.9 584.45 250.61 556.21 288.11 584.45 250 613.42 211.9 584.45"/><polygon class="cls-1" points="211.9 582.23 250.61 553.99 288.11 582.23 250 611.21 211.9 582.23"/></g></svg>