<svg xmlns="http://www.w3.org/2000/svg" viewBox="0 0 500 920"><defs><style>.cls-1{fill:#ffe057;}</style></defs><title>Artboard 37</title><g id="Layer_4" data-name="Layer 4"><polygon class="cls-1" points="249.63 587.42 221.39 548.7 249.63 511.21 278.61 549.31 249.63 587.42"/><polygon class="cls-1" points="249.63 498.11 221.39 459.39 249.63 421.89 278.61 460 249.63 498.11"/><polygon class="cls-1" points="249.63 408.79 221.39 370.08 249.63 332.58 278.61 370.69 249.63 408.79"/><polygon class="cls-1" points="180.5 498.11 152.25 459.39 180.5 421.89 209.47 460 180.5 498.11"/><polygon class="cls-1" points="318.77 498.11 290.53 459.39 318.77 421.89 347.75 460 318.77 498.11"/><polygon class="cls-1" points="181.23 332.58 209.47 371.3 181.23 408.79 152.25 370.69 181.23 332.58"/><polygon class="cls-1" points="319.5 511.21 347.75 549.92 319.5 587.42 290.53 549.31 319.5 511.21"/></g></svg>