<svg xmlns="http://www.w3.org/2000/svg" viewBox="0 0 500 920"><defs><style>.cls-1{fill:#ffe057;}</style></defs><title>Artboard 38</title><g id="Layer_4" data-name="Layer 4"><polygon class="cls-1" points="252.98 548.38 221.67 507.04 252.98 467 285.1 507.69 252.98 548.38"/><polygon class="cls-1" points="252.98 453 221.67 411.67 252.98 371.63 285.1 412.31 252.98 453"/><polygon class="cls-1" points="167.24 465.25 205.95 437 243.45 465.25 205.34 494.22 167.24 465.25"/><polygon class="cls-1" points="256.55 465.25 295.26 437 332.76 465.25 294.66 494.22 256.55 465.25"/><polygon class="cls-1" points="287.59 367.02 259.34 328.31 287.59 290.81 316.56 328.92 287.59 367.02"/><polygon class="cls-1" points="219.18 290.81 247.43 329.53 219.18 367.02 190.21 328.92 219.18 290.81"/><polygon class="cls-1" points="287.59 629.19 259.34 590.47 287.59 552.98 316.56 591.08 287.59 629.19"/><polygon class="cls-1" points="219.18 552.98 247.43 591.69 219.18 629.19 190.21 591.08 219.18 552.98"/></g></svg>