<svg xmlns="http://www.w3.org/2000/svg" viewBox="0 0 500 920"><defs><style>.cls-1{fill:#ffe057;}</style></defs><title>Artboard 39</title><g id="Layer_4" data-name="Layer 4"><polygon class="cls-1" points="249.63 319.48 221.39 280.77 249.63 243.27 278.61 281.37 249.63 319.48"/><polygon class="cls-1" points="284.2 408.79 255.96 370.08 284.2 332.58 313.18 370.69 284.2 408.79"/><polygon class="cls-1" points="215.8 332.58 244.04 371.3 215.8 408.79 186.82 370.69 215.8 332.58"/><polygon class="cls-1" points="250.37 600.52 278.61 639.23 250.37 676.73 221.39 638.63 250.37 600.52"/><polygon class="cls-1" points="215.8 511.21 244.04 549.92 215.8 587.42 186.82 549.31 215.8 511.21"/><polygon class="cls-1" points="284.2 587.42 255.96 548.7 284.2 511.21 313.18 549.31 284.2 587.42"/><polygon class="cls-1" points="249.63 498.11 221.39 459.39 249.63 421.89 278.61 460 249.63 498.11"/><polygon class="cls-1" points="180.5 498.11 152.25 459.39 180.5 421.89 209.47 460 180.5 498.11"/><polygon class="cls-1" points="319.5 421.89 347.75 460.61 319.5 498.11 290.53 460 319.5 421.89"/></g></svg>