<svg xmlns="http://www.w3.org/2000/svg" viewBox="0 0 500 920"><defs><style>.cls-1{fill:#ffe057;}</style></defs><title>Artboard 30</title><g id="Layer_3" data-name="Layer 3"><path class="cls-1" d="M284.93,403.46h0A19,19,0,1,0,250,391.78a19,19,0,1,0-35.4,10.9l-.09.05.65.87a17.92,17.92,0,0,0,1.43,1.91L250,450.23l33.36-44.59a19.65,19.65,0,0,0,1.59-2.13Z"/><path class="cls-1" d="M215.07,516.54h0A19,19,0,1,0,250,528.22a19,19,0,1,0,35.4-10.9l.09-.05-.65-.87a17.92,17.92,0,0,0-1.43-1.91l-33.36-44.72-33.36,44.59a19.65,19.65,0,0,0-1.59,2.13Z"/><path class="cls-1" d="M306.54,494.93h0A19,19,0,1,0,318.22,460a19,19,0,1,0-10.9-35.4l-.05-.09-.87.65a17.92,17.92,0,0,0-1.91,1.43L259.77,460l44.59,33.36a19.65,19.65,0,0,0,2.13,1.59Z"/><path class="cls-1" d="M193.46,425.07h0A19,19,0,1,0,181.78,460a19,19,0,1,0,10.9,35.4l0,.09.87-.65a17.92,17.92,0,0,0,1.91-1.43l44.72-33.36-44.59-33.36a19.65,19.65,0,0,0-2.13-1.59Z"/><path class="cls-1" d="M215.07,696.78h0A19,19,0,1,0,250,708.46a19,19,0,1,0,35.4-10.89l.09-.06-.65-.86a19.12,19.12,0,0,0-1.43-1.92L250.05,650l-33.36,44.59a19.65,19.65,0,0,0-1.59,2.13Z"/><path class="cls-1" d="M167.29,609.44h0a19,19,0,1,0,34.93,11.68,19,19,0,1,0,35.4-10.9l.09-.06-.65-.86a17.92,17.92,0,0,0-1.43-1.91l-33.36-44.72-33.36,44.59a18.42,18.42,0,0,0-1.59,2.13Z"/><path class="cls-1" d="M262.85,609.44h0a19,19,0,1,0,34.93,11.68,19,19,0,1,0,35.41-10.9l.08-.06-.65-.86a19.3,19.3,0,0,0-1.42-1.91l-33.37-44.72-33.36,44.59a19.65,19.65,0,0,0-1.59,2.13Z"/><path class="cls-1" d="M284.93,223.22h0A19,19,0,1,0,250,211.54a19,19,0,1,0-35.4,10.89l-.09.06.65.86a19.12,19.12,0,0,0,1.43,1.92L250,270l33.36-44.59a19.65,19.65,0,0,0,1.59-2.13Z"/><path class="cls-1" d="M332.71,310.56h0a19,19,0,1,0-34.93-11.68,19,19,0,1,0-35.4,10.9l-.09.06.65.86a17.92,17.92,0,0,0,1.43,1.91l33.36,44.72,33.36-44.59a18.42,18.42,0,0,0,1.59-2.13Z"/><path class="cls-1" d="M237.15,310.56h0a19,19,0,1,0-34.93-11.68,19,19,0,1,0-35.41,10.9l-.08.06.65.86a19.3,19.3,0,0,0,1.42,1.91l33.37,44.72,33.36-44.59a19.65,19.65,0,0,0,1.59-2.13Z"/></g></svg>