<svg xmlns="http://www.w3.org/2000/svg" viewBox="0 0 500 920"><defs><style>.cls-1{fill:#ffe057;}</style></defs><title>Artboard 22</title><g id="Layer_3" data-name="Layer 3"><path class="cls-1" d="M284.93,499.25h0A19,19,0,1,0,250,487.57a19,19,0,1,0-35.4,10.89l-.09.06.65.87a20.2,20.2,0,0,0,1.43,1.91L250,546l33.36-44.6a19.65,19.65,0,0,0,1.59-2.13Z"/><path class="cls-1" d="M215.07,420.75h0A19,19,0,1,0,250,432.43a19,19,0,1,0,35.4-10.89l.09-.06-.65-.87a20.2,20.2,0,0,0-1.43-1.91L250.05,374l-33.36,44.6a19.65,19.65,0,0,0-1.59,2.13Z"/></g></svg>