<svg xmlns="http://www.w3.org/2000/svg" viewBox="0 0 500 920"><defs><style>.cls-1{fill:#ffe057;}</style></defs><title>Artboard 23</title><g id="Layer_3" data-name="Layer 3"><path class="cls-1" d="M284.93,547.14h0A19,19,0,1,0,250,535.46a19,19,0,1,0-35.4,10.9l-.09,0,.65.87a19,19,0,0,0,1.43,1.91L250,593.91l33.36-44.6a20.55,20.55,0,0,0,1.59-2.12Z"/><path class="cls-1" d="M284.93,451.35h0A19,19,0,1,0,250,439.67a19,19,0,1,0-35.4,10.9l-.09.06.65.86a17.92,17.92,0,0,0,1.43,1.91L250,498.12l33.36-44.59a19.65,19.65,0,0,0,1.59-2.13Z"/><path class="cls-1" d="M284.93,355.57h0A19,19,0,1,0,250,343.89a19,19,0,1,0-35.4,10.9l-.09,0,.65.87a19,19,0,0,0,1.43,1.91L250,402.34l33.36-44.6a20.55,20.55,0,0,0,1.59-2.12Z"/></g></svg>