<svg xmlns="http://www.w3.org/2000/svg" viewBox="0 0 500 920"><defs><style>.cls-1{fill:#ffe057;}</style></defs><title>Artboard 26</title><g id="Layer_3" data-name="Layer 3"><path class="cls-1" d="M284.93,403.46h0A19,19,0,1,0,250,391.78a19,19,0,1,0-35.4,10.9l-.09.05.65.87a17.92,17.92,0,0,0,1.43,1.91L250,450.23l33.36-44.59a19.65,19.65,0,0,0,1.59-2.13Z"/><path class="cls-1" d="M215.07,516.54h0A19,19,0,1,0,250,528.22a19,19,0,1,0,35.4-10.9l.09-.05-.65-.87a17.92,17.92,0,0,0-1.43-1.91l-33.36-44.72-33.36,44.59a19.65,19.65,0,0,0-1.59,2.13Z"/><path class="cls-1" d="M306.54,494.93h0A19,19,0,1,0,318.22,460a19,19,0,1,0-10.9-35.4l-.05-.09-.87.65a17.92,17.92,0,0,0-1.91,1.43L259.77,460l44.59,33.36a19.65,19.65,0,0,0,2.13,1.59Z"/><path class="cls-1" d="M193.46,425.07h0A19,19,0,1,0,181.78,460a19,19,0,1,0,10.9,35.4l0,.09.87-.65a17.92,17.92,0,0,0,1.91-1.43l44.72-33.36-44.59-33.36a19.65,19.65,0,0,0-2.13-1.59Z"/><path class="cls-1" d="M284.93,585.26h0A19,19,0,1,0,250,573.58a19,19,0,1,0-35.4,10.9l-.09,0,.65.87a17.92,17.92,0,0,0,1.43,1.91L250,632l33.36-44.59a19.65,19.65,0,0,0,1.59-2.13Z"/><path class="cls-1" d="M215.07,334.74h0A19,19,0,1,0,250,346.42a19,19,0,1,0,35.4-10.9l.09,0-.65-.87a17.92,17.92,0,0,0-1.43-1.91L250.05,288l-33.36,44.59a19.65,19.65,0,0,0-1.59,2.13Z"/></g></svg>