<svg xmlns="http://www.w3.org/2000/svg" viewBox="0 0 500 920"><defs><style>.cls-1{fill:#ffe057;}</style></defs><title>Artboard 27</title><g id="Layer_3" data-name="Layer 3"><path class="cls-1" d="M284.72,451.35h0a19,19,0,1,0-34.93-11.68,19,19,0,1,0-35.4,10.9l-.08.06.64.86a19.38,19.38,0,0,0,1.43,1.91l33.36,44.72,33.36-44.59a18.42,18.42,0,0,0,1.59-2.13Z"/><path class="cls-1" d="M214.85,564.43h0a19,19,0,1,0,34.93,11.68,19,19,0,1,0,35.41-10.9l.08-.05-.65-.87a18.9,18.9,0,0,0-1.42-1.91l-33.37-44.72-33.35,44.6a19.21,19.21,0,0,0-1.59,2.12Z"/><path class="cls-1" d="M284.72,355.57h0a19,19,0,1,0-34.93-11.68,19,19,0,1,0-35.4,10.9l-.08,0,.64.87a20.65,20.65,0,0,0,1.43,1.91l33.36,44.72,33.36-44.6a19.21,19.21,0,0,0,1.59-2.12Z"/><path class="cls-1" d="M311,469.12h0a19,19,0,1,0,34.79,12.08,19,19,0,1,0,35.53-10.5l.08-.05-.64-.88a17.44,17.44,0,0,0-1.4-1.92l-32.85-45.1L312.62,467a19.37,19.37,0,0,0-1.62,2.11Z"/><path class="cls-1" d="M119.41,466.94h0A19,19,0,1,0,154.21,479a19,19,0,1,0,35.52-10.5l.09,0-.64-.87a18,18,0,0,0-1.41-1.93l-32.85-45.1-33.86,44.22a18.34,18.34,0,0,0-1.62,2.1Z"/><path class="cls-1" d="M189.16,355.57h0a19,19,0,1,0-34.93-11.68,19,19,0,1,0-35.4,10.9l-.09,0,.65.87a19,19,0,0,0,1.43,1.91l33.36,44.72,33.36-44.6a19.21,19.21,0,0,0,1.59-2.12Z"/><path class="cls-1" d="M310.84,564.43h0a19,19,0,1,0,34.93,11.68,19,19,0,1,0,35.4-10.9l.09-.05-.65-.87a19,19,0,0,0-1.43-1.91l-33.36-44.72-33.36,44.6a19.21,19.21,0,0,0-1.59,2.12Z"/></g></svg>