<svg xmlns="http://www.w3.org/2000/svg" viewBox="0 0 500 920"><defs><style>.cls-1{fill:#ffe057;}</style></defs><title>Artboard 29</title><g id="Layer_3" data-name="Layer 3"><path class="cls-1" d="M214.77,641.69h0a19,19,0,1,0,34.47,13A19,19,0,1,0,285,645.09l.08-.05-.61-.89a18.91,18.91,0,0,0-1.35-2l-31.68-45.94-35,43.33a17.39,17.39,0,0,0-1.66,2.06Z"/><path class="cls-1" d="M284.93,276.31h0A19,19,0,1,0,250,264.63a19,19,0,1,0-35.4,10.9l-.09.05.65.87a17.92,17.92,0,0,0,1.43,1.91L250,323.08l33.36-44.59a19.65,19.65,0,0,0,1.59-2.13Z"/><path class="cls-1" d="M332.71,363.66h0A19,19,0,1,0,297.78,352a19,19,0,1,0-35.4,10.9l-.09.05.65.87a19,19,0,0,0,1.43,1.91l33.36,44.72,33.36-44.6a19.21,19.21,0,0,0,1.59-2.12Z"/><path class="cls-1" d="M237.15,363.66h0A19,19,0,1,0,202.22,352a19,19,0,1,0-35.41,10.9l-.08.05.65.87a20.55,20.55,0,0,0,1.42,1.91l33.37,44.72,33.36-44.6a20.55,20.55,0,0,0,1.59-2.12Z"/><path class="cls-1" d="M167.29,555.65h0a19,19,0,1,0,34.93,11.68,19,19,0,1,0,35.4-10.9l.09,0-.65-.87a17.92,17.92,0,0,0-1.43-1.91l-33.36-44.72-33.36,44.59a18.42,18.42,0,0,0-1.59,2.13Z"/><path class="cls-1" d="M262.85,555.65h0a19,19,0,1,0,34.93,11.68,19,19,0,1,0,35.41-10.9l.08,0-.65-.87a19.3,19.3,0,0,0-1.42-1.91l-33.37-44.72-33.36,44.59a19.65,19.65,0,0,0-1.59,2.13Z"/><path class="cls-1" d="M380.5,451h0a19,19,0,1,0-34.93-11.68,19,19,0,1,0-35.4,10.89l-.08.06.64.87a20.2,20.2,0,0,0,1.43,1.91l33.36,44.72,33.36-44.6a18.42,18.42,0,0,0,1.59-2.13Z"/><path class="cls-1" d="M215.07,468.3h0A19,19,0,1,0,250,480a19,19,0,1,0,35.4-10.9l.09-.05-.65-.87a17.92,17.92,0,0,0-1.43-1.91l-33.36-44.72-33.36,44.59a20.68,20.68,0,0,0-1.59,2.13Z"/><path class="cls-1" d="M189.37,451h0a19,19,0,1,0-34.93-11.68A19,19,0,1,0,119,450.22l-.08.06.65.87a20.1,20.1,0,0,0,1.42,1.91l33.37,44.72,33.35-44.6a19.73,19.73,0,0,0,1.6-2.13Z"/></g></svg>